# xmcd
#
# Track frame offsets:
# 150
# 9624
# 25928
# 38312
# 52586
# 66817
# 81048
# 91951
# 103326
# 115179
# 124060
# 134931
# 145802
# 160078
# 169160
# 177188
# 190011
# 205625
# 219639
# 232575
# 245934
# 258096
# 271393
# 280521
# 290844
# 303956
# 314288
# 328750
# 336310
# 344515
#
# Disc length: 4755 seconds
#
#
# Revision: 0
# Processed by: cddbd v1.4PL0 Copyright (c) Steve Scherf et al.
# Submitted via: FreeRIP 2.35 
#
DISCID=b112911e
DTITLE=Johnny Horton -cd 3 - 
DYEAR=1900
DGENRE=
TTITLE0=Ole slew foot
TTITLE1=Miss Marcy
TTITLE2=Sleepy eyed John
TTITLE3=The mansion you stole
TTITLE4=They'll never take her love from me
TTITLE5=The Sinking of the reuben james
TTITLE6=Jim Bridger
TTITLE7=The battle of bullrun
TTITLE8=Snow-shoe Thompson
TTITLE9=John Paul Jones
TTITLE10=Comanche (The brave Hors)
TTITLE11=Young abe lincoln
TTITLE12=O'leary's cow
TTITLE13=Johnny freedom
TTITLE14=Go North
TTITLE15=North to Alaska 1991
TTITLE16=North to Alaska 1960
TTITLE17=I just like this kind of livin'
TTITLE18=Rock yslands line
TTITLE19=Hank and joe and me
TTITLE20=The golden rocket
TTITLE21=A-sleeping at the foot of the bed
TTITLE22=I just don't like this kind of livin' 1969
TTITLE23=Old blind barnabas
TTITLE24=Evil hearted me
TTITLE25=Hot in the sugarcane field
TTITLE26=You don't move me baby anymore
TTITLE27=The gosh-darrnwheel
TTITLE28=Broken hearted Gypsy
TTITLE29=The church by the side of the road
EXTD=
EXTT0=
EXTT1=
EXTT2=
EXTT3=
EXTT4=
EXTT5=
EXTT6=
EXTT7=
EXTT8=
EXTT9=
EXTT10=
EXTT11=
EXTT12=
EXTT13=
EXTT14=
EXTT15=
EXTT16=
EXTT17=
EXTT18=
EXTT19=
EXTT20=
EXTT21=
EXTT22=
EXTT23=
EXTT24=
EXTT25=
EXTT26=
EXTT27=
EXTT28=
EXTT29=
PLAYORDER=
